# xmcd CD database file
#
# Track frame offsets:
#	150
#	20628
#	40780
#
# Disc length: 742 seconds
#
# Revision: 0
# Processed by: cddbd v1.5.1PL0 Copyright (c) Steve Scherf et al.
# Submitted via: CDex 1.51
#
DISCID=1c02e403
DTITLE=斉藤和義 - 真夜中のプール
DYEAR=2004
DGENRE=JPop
TTITLE0=真夜中のプール
TTITLE1=古いラジカセ
TTITLE2=モンロー・ウォーク
EXTD=YEAR: 2004
EXTT0=
EXTT1=
EXTT2=
PLAYORDER=
